<?xml version="1.0" encoding="utf-8"?>
<svg xmlns="http://www.w3.org/2000/svg"
	xmlns:xlink="http://www.w3.org/1999/xlink"
	width="12px" height="13px" viewBox="0 0 12 13">
<path fillRule="evenodd" d="M 3.09 7.5C 2.82 7.2 2.61 6.87 2.47 6.51 2.34 6.14 2.27 5.77 2.27 5.39 2.27 5 2.34 4.63 2.47 4.26 2.61 3.88 2.82 3.55 3.09 3.26 3.37 2.97 3.68 2.75 4.03 2.61 4.37 2.47 4.73 2.4 5.09 2.4 5.46 2.4 5.81 2.47 6.16 2.61 6.51 2.75 6.82 2.97 7.09 3.26 7.37 3.55 7.58 3.88 7.71 4.26 7.85 4.63 7.92 5 7.92 5.39 7.92 5.77 7.85 6.14 7.71 6.51 7.58 6.87 7.37 7.2 7.09 7.5 6.82 7.79 6.51 8.01 6.16 8.15 5.81 8.3 5.46 8.37 5.09 8.37 4.73 8.37 4.37 8.3 4.03 8.15 3.68 8.01 3.37 7.79 3.09 7.5ZM 1.49 1.57C 1 2.09 0.62 2.69 0.37 3.35 0.12 4.02-0 4.69-0 5.38-0 6.07 0.12 6.74 0.37 7.4 0.62 8.07 1 8.66 1.49 9.19 1.89 9.61 2.34 9.95 2.83 10.21 3.32 10.46 3.82 10.63 4.35 10.71 4.87 10.8 5.4 10.79 5.93 10.7 6.46 10.61 6.96 10.43 7.44 10.16 7.44 10.16 9.73 12.59 9.73 12.59 9.87 12.73 10.01 12.84 10.17 12.9 10.33 12.97 10.5 13 10.67 13 10.85 13 11.01 12.97 11.17 12.9 11.33 12.84 11.48 12.73 11.61 12.59 11.75 12.45 11.84 12.29 11.91 12.13 11.97 11.96 12 11.78 12 11.6 12 11.41 11.97 11.24 11.91 11.07 11.84 10.9 11.75 10.74 11.61 10.6 11.61 10.6 9.4 8.26 9.4 8.26 9.71 7.74 9.93 7.18 10.05 6.59 10.18 6 10.21 5.41 10.15 4.81 10.1 4.22 9.94 3.64 9.7 3.08 9.46 2.52 9.12 2.02 8.69 1.57 8.2 1.05 7.63 0.66 7.01 0.4 6.38 0.13 5.74 0 5.09 0 4.44 0 3.81 0.13 3.18 0.4 2.55 0.66 1.99 1.05 1.49 1.57Z" fill="rgb(255,255,255)"/></svg>